<svg width="242" height="62" viewBox="0 0 242 62" fill="none" xmlns="http://www.w3.org/2000/svg">
<path fill-rule="evenodd" clip-rule="evenodd" d="M30.7591 48.9C31.6946 49.1 32.7805 49.2 34.0167 49.2C33.5489 48.6 33.315 47.6667 33.315 46.4C33.315 43.8333 33.9164 40.4167 35.1192 36.15C36.3554 31.85 37.9257 27.65 39.8302 23.55C40.9995 23.65 42.1021 23.8333 43.1378 24.1C44.1736 24.3667 45.3095 24.7833 46.5457 25.35L42.6868 43.5H49.9035L57.7718 6.7C56.7361 6.23333 55.4163 6 53.8126 6C51.0395 6 48.1161 7.38333 45.0423 10.15C42.0019 12.8833 39.1118 16.4167 36.3721 20.75C35.3364 20.65 34.4677 20.6 33.7661 20.6C31.8617 20.6 30.1243 20.8833 28.554 21.45C26.9837 21.9833 25.7475 22.7167 24.8454 23.65C23.9767 24.5833 23.5424 25.6167 23.5424 26.75C23.5424 27.6833 23.8264 28.4 24.3943 28.9C24.9623 29.4 25.7141 29.65 26.6496 29.65C27.4514 29.65 28.1196 29.4833 28.6542 29.15C29.1888 28.7833 29.4561 28.3 29.4561 27.7C29.4561 27.3333 29.3726 26.9833 29.2055 26.65C29.0719 26.3167 28.9382 26.15 28.8046 26.15C29.1053 25.3167 29.7401 24.7 30.709 24.3C31.6779 23.9 32.9976 23.65 34.6682 23.55C32.4631 27.35 30.6756 31.1333 29.3057 34.9C27.9693 38.6667 27.3011 41.6667 27.3011 43.9C27.3011 45.5 27.6352 46.6833 28.3034 47.45C29.005 48.2167 29.8236 48.7 30.7591 48.9ZM45.3931 13.85C46.9634 11.75 48.4669 10.3167 49.9035 9.55L46.9968 23.15C45.3262 22.45 43.2882 21.8667 40.8826 21.4C42.3527 18.4333 43.8562 15.9167 45.3931 13.85Z" fill="#0078D9"/>
<path fill-rule="evenodd" clip-rule="evenodd" d="M78.3712 42.3C79.3736 43.3 80.6766 43.8 82.2803 43.8C84.1847 43.8 86.1059 43.1667 88.0437 41.9C88.9432 41.2965 89.7672 40.4453 90.5155 39.3462C90.8747 40.3479 91.4139 41.1658 92.1332 41.8C93.5698 43.0667 95.5244 43.7 97.9968 43.7C100.035 43.7 101.923 43.0833 103.66 41.85C105.397 40.6167 106.817 38.8666 107.92 36.6C109.022 34.3333 109.707 31.6833 109.975 28.65C111.259 28.4403 112.47 28.133 113.607 27.7279C113.573 27.8181 113.539 27.9088 113.505 28C112.536 30.7 112.052 33.2833 112.052 35.75C112.052 38.5167 112.687 40.55 113.956 41.85C115.226 43.15 116.813 43.8 118.717 43.8C121.023 43.8 123.027 42.8833 124.731 41.05L124.13 43.7C121.758 44.4667 119.803 45.4167 118.266 46.55C116.729 47.7167 115.961 49.25 115.961 51.15C115.961 52.7167 116.496 53.9167 117.565 54.75C118.634 55.5833 119.97 56 121.574 56C123.645 56 125.5 55.3833 127.137 54.15C128.774 52.95 129.927 50.7333 130.595 47.5L131.347 43.9C133.285 43.4 135.022 42.4667 136.559 41.1C136.622 41.0423 136.685 40.9833 136.747 40.923L136.2 43.5H143.416L147.426 24.5C148.194 23.8 148.812 23.3167 149.28 23.05C149.781 22.75 150.382 22.6 151.084 22.6C151.351 22.6 151.535 22.7 151.635 22.9C151.736 23.1 151.836 23.4167 151.936 23.85C152.07 24.5167 152.253 25.0333 152.487 25.4C152.755 25.7333 153.256 25.9 153.991 25.9C155.127 25.9 156.012 25.5333 156.647 24.8C157.282 24.0667 157.599 23.2167 157.599 22.25C157.599 21.2167 157.282 20.3333 156.647 19.6C156.046 18.8667 155.21 18.5 154.141 18.5C153.072 18.5 152.07 18.7667 151.134 19.3C150.232 19.8333 149.213 20.6 148.077 21.6L148.729 18.5H141.512L138.08 34.6521C137.417 36.7014 136.61 38.2507 135.657 39.3C134.688 40.3667 133.401 41.1667 131.798 41.7L136.759 18.5H129.542L128.991 21.1V20.8C128.991 20.0333 128.657 19.4167 127.989 18.95C127.321 18.4833 126.302 18.25 124.932 18.25C122.225 18.25 119.887 19.2 117.915 21.1C116.689 22.2819 115.649 23.6375 114.797 25.1669C114.694 25.2119 114.59 25.2562 114.485 25.3C113.048 25.8667 111.779 26.15 110.676 26.15C110.409 26.15 110.225 26.1333 110.125 26.1V26.05C110.125 20.7167 107.987 18.05 103.71 18.05C100.569 18.05 97.9634 19.0667 95.8919 21.1C93.8204 23.1 92.3169 25.4833 91.3814 28.25C90.4459 31.0167 89.9782 33.5333 89.9782 35.8C89.9782 35.9699 89.9809 36.137 89.9865 36.3013C89.6831 36.8443 89.3195 37.3272 88.8957 37.75C88.0604 38.55 87.1583 38.95 86.1894 38.95C85.4543 38.95 84.9198 38.8167 84.5857 38.55C84.285 38.25 84.1346 37.7667 84.1346 37.1C84.1346 36.5333 84.2014 36 84.3351 35.5L87.5425 20.5H90.5495L90.9504 18.5H87.9435L89.6474 10.6L82.2302 11.6L80.7267 18.5H79.0729L78.6719 20.5H80.3258L77.3188 34.55C77.0515 35.8834 76.9179 36.9667 76.9179 37.8C76.9179 39.8 77.4023 41.3 78.3712 42.3ZM100.001 39.2C100.803 39.2 101.605 38.75 102.407 37.85C103.209 36.9167 103.91 35.6667 104.512 34.1C105.113 32.5 105.548 30.7333 105.815 28.8C104.913 28.6 104.462 27.9 104.462 26.7C104.462 25.3333 104.98 24.4333 106.015 24C105.949 22.9 105.781 22.15 105.514 21.75C105.247 21.3167 104.779 21.1 104.111 21.1C103.008 21.1 101.939 21.9 100.904 23.5C99.8678 25.1 99.0325 27.0167 98.3977 29.25C97.7629 31.4833 97.4455 33.45 97.4455 35.15C97.4455 36.75 97.6292 37.8333 97.9968 38.4C98.3643 38.9333 99.0325 39.2 100.001 39.2ZM124.33 37.9C123.529 38.6 122.743 38.95 121.975 38.95C121.273 38.95 120.672 38.7167 120.171 38.25C119.703 37.7833 119.469 36.7167 119.469 35.05C119.469 33.3833 119.77 31.4667 120.371 29.3C120.973 27.1 121.808 25.2333 122.877 23.7C123.946 22.1333 125.149 21.35 126.485 21.35C127.187 21.35 127.705 21.5667 128.039 22C128.373 22.4 128.54 22.8 128.54 23.2L125.984 35.05C125.684 36.25 125.132 37.2 124.33 37.9ZM122.075 50.95C121.541 51.7167 120.989 52.1 120.421 52.1C119.887 52.1 119.469 51.9333 119.168 51.6C118.868 51.2667 118.717 50.8833 118.717 50.45C118.717 48.8167 120.354 47.4 123.629 46.2L123.328 47.65C123.027 49.0833 122.61 50.1833 122.075 50.95Z" fill="#0078D9"/>
<path fill-rule="evenodd" clip-rule="evenodd" d="M158.2 41.85C159.469 43.15 161.056 43.8 162.961 43.8C164.598 43.8 166.001 43.3833 167.17 42.55C168.373 41.6833 169.459 40.5667 170.428 39.2C170.595 40.7 171.096 41.85 171.931 42.65C172.8 43.4167 173.936 43.8 175.339 43.8C177.177 43.8 178.998 43.1667 180.802 41.9C181.21 41.6113 181.603 41.2659 181.982 40.8638L181.422 43.5H188.638L192.046 27.45C192.447 26.05 192.982 24.9333 193.65 24.1C194.352 23.2333 195.17 22.8 196.106 22.8C197.108 22.8 197.609 23.5333 197.609 25C197.609 25.4333 197.559 25.85 197.459 26.25L193.8 43.5H201.017L204.425 27.45C204.826 26.0833 205.361 24.9833 206.029 24.15C206.697 23.2833 207.465 22.85 208.334 22.85C209.537 22.85 210.138 23.7 210.138 25.4C210.138 26.1 210.021 27.0167 209.787 28.15C209.554 29.2833 209.303 30.4333 209.036 31.6C208.969 31.8333 208.835 32.3667 208.635 33.2C208.468 34.0333 208.301 34.9 208.134 35.8C207.967 36.6667 207.883 37.45 207.883 38.15C207.883 39.7833 208.284 41.1333 209.086 42.2C209.888 43.2667 211.174 43.8 212.945 43.8C214.381 43.8 215.601 43.3667 216.603 42.5C217.639 41.6333 218.257 40.35 218.458 38.65C218.157 38.85 217.606 38.95 216.804 38.95C216.069 38.95 215.551 38.7667 215.25 38.4C214.949 38.0333 214.799 37.5167 214.799 36.85C214.799 36.2833 214.899 35.5167 215.1 34.55C215.334 33.55 215.584 32.5333 215.852 31.5C216.286 29.8 216.62 28.3667 216.854 27.2C217.088 26 217.205 24.9167 217.205 23.95C217.205 22.05 216.704 20.6333 215.701 19.7C214.699 18.7667 213.346 18.3 211.642 18.3C208.835 18.3 206.513 19.7167 204.676 22.55C204.174 19.6833 202.454 18.25 199.514 18.25C197.141 18.25 195.103 19.2 193.399 21.1L193.951 18.5H186.734L183.323 34.55H183.308C182.907 35.95 182.356 37.0833 181.654 37.95C180.986 38.8167 180.184 39.25 179.248 39.25C177.879 39.25 177.194 38.5333 177.194 37.1C177.194 36.5333 177.261 36 177.394 35.5L181.003 18.5H173.786L173.234 21.15V20.8C173.234 20.0333 172.9 19.4167 172.232 18.95C171.564 18.4833 170.545 18.25 169.175 18.25C166.469 18.25 164.13 19.2 162.159 21.1C160.221 22.9667 158.751 25.2667 157.749 28C156.78 30.7 156.295 33.2833 156.295 35.75C156.295 38.5167 156.93 40.55 158.2 41.85ZM168.674 37.8C167.872 38.5667 167.053 38.95 166.218 38.95C165.517 38.95 164.915 38.7167 164.414 38.25C163.946 37.7833 163.712 36.7167 163.712 35.05C163.712 33.3833 164.013 31.4667 164.614 29.3C165.216 27.1 166.051 25.2333 167.12 23.7C168.189 22.1333 169.392 21.35 170.729 21.35C171.43 21.35 171.948 21.5667 172.282 22C172.616 22.4 172.783 22.8167 172.783 23.25L170.378 34.55C170.077 35.9167 169.509 37 168.674 37.8Z" fill="#0078D9"/>
<path d="M62.2804 43.8C60.3426 43.8 58.8224 43.3167 57.7198 42.35C56.6507 41.35 56.1161 39.8667 56.1161 37.9C56.1161 37.1 56.1996 36.3 56.3667 35.5L59.9751 18.5H67.1918L63.5834 35.5C63.4164 36.3334 63.3329 36.9334 63.3329 37.3C63.3329 38.4 63.9008 38.95 65.0368 38.95C66.5737 38.95 67.9937 37.9834 69.2967 36.05C70.6331 34.1167 71.7023 31.8167 72.5041 29.15C73.306 26.4834 73.7069 24.1834 73.7069 22.25C73.6401 22.4167 73.4229 22.55 73.0554 22.65C72.6879 22.7167 72.3705 22.75 72.1032 22.75C71.5352 22.75 71.0842 22.4834 70.7501 21.95C70.4494 21.4167 70.299 20.8334 70.299 20.2C70.299 19.4 70.5496 18.75 71.0508 18.25C71.5854 17.75 72.3705 17.5 73.4062 17.5C74.5088 17.5 75.3107 17.9167 75.8118 18.75C76.313 19.55 76.5636 20.5834 76.5636 21.85C76.5636 24.85 76.0457 28.0667 75.01 31.5C73.9742 34.9 72.3872 37.8 70.2489 40.2C68.1106 42.6 65.4545 43.8 62.2804 43.8Z" fill="#0078D9"/>
<path d="M228.313 7.72729H229.644L231.96 13.3807H232.045L234.36 7.72729H235.692V15H234.648V9.73724H234.58L232.435 14.9894H231.569L229.424 9.73369H229.357V15H228.313V7.72729Z" fill="#0078D9"/>
<path d="M221.44 8.6719V7.72729H227.069V8.6719H224.8V15H223.706V8.6719H221.44Z" fill="#0078D9"/>
</svg>
